<svg xmlns="http://www.w3.org/2000/svg" viewBox="0 0 100 100" version="1.1" id="svg819"><style id="style815">@media (prefers-color-scheme:dark){path{fill:#fff}}</style><path d="M19.281 34.355c.016 3.522-2.392 5.367-5.008 5.367-2.75 0-4.525-1.928-4.545-5.024V19.285h-7.28v16.711c.016 6.138 3.605 9.876 8.885 9.876 3.95 0 6.784-2.03 7.964-5.107h.276v4.765h6.988V19.285h-7.28zm20.335-3.997c.016-3.384 2.034-5.367 4.974-5.367 2.92 0 4.682 1.916 4.662 5.127V45.53h7.28V28.82c0-6.12-3.589-9.877-9.054-9.877-3.896 0-6.717 1.912-7.897 4.974h-.307v-4.632h-6.937V45.53h7.28zM62.221 45.53h7.28V19.285h-7.28zm3.66-29.628c2.168 0 3.946-1.657 3.946-3.691 0-2.019-1.778-3.675-3.946-3.675-2.153 0-3.935 1.656-3.935 3.675 0 2.034 1.782 3.69 3.935 3.69zM82.772 46.03c3.88 0 6.39-1.692 7.673-4.14h.205v3.64h6.901V27.828c0-6.257-5.296-8.885-11.139-8.885-6.288 0-10.427 3.006-11.434 7.79l6.732.552c.496-1.747 2.054-3.03 4.667-3.03 2.479 0 3.895 1.251 3.895 3.404v.102c0 1.692-1.794 1.912-6.355 2.36-5.193.473-9.86 2.22-9.86 8.079 0 5.194 3.707 7.83 8.715 7.83zm2.086-5.025c-2.243 0-3.848-1.043-3.848-3.041 0-2.054 1.692-3.062 4.257-3.42 1.59-.22 4.187-.598 5.056-1.18v2.786c0 2.754-2.27 4.855-5.469 4.855zM9.77 82.068c2.188 0 4.084-1.83 4.1-4.104a4.151 4.151 0 00-4.1-4.064 4.084 4.084 0 100 8.168zm16.113-26.693h-7.515l7.515 13.122-7.79 13.127h7.515l5.095-9.074 5.178 9.074h7.433l-7.81-13.127 7.605-13.122h-7.468l-4.938 9.176zm26.044 36.09c5.418 0 8.287-2.767 9.774-7.005l10.203-29.05-7.708-.04-5.485 19.281h-.276l-5.43-19.28H45.35l9.416 27-.429 1.114c-.956 2.459-2.786 2.577-5.351 1.794l-1.637 5.43c1.043.448 2.735.755 4.58.755zm23.565-9.841h22.058v-5.812H85.043v-.189l12.064-15.515v-4.733h-21.17v5.811H88.34v.185L75.493 77.284z" id="path817" stroke-width="3.935"/></svg>